<svg width="150" height="52" viewBox="0 0 150 52" fill="none" xmlns="http://www.w3.org/2000/svg">
<rect width="150" height="52" rx="10" fill="#2E8B57"/>
<path d="M67.7139 19.2031V32H65.0771L59.9355 23.4219V32H57.2988V19.2031H59.9355L65.0859 27.79V19.2031H67.7139ZM74.2266 32.1758C73.4883 32.1758 72.8262 32.0586 72.2402 31.8242C71.6543 31.584 71.1562 31.2529 70.7461 30.8311C70.3418 30.4092 70.0312 29.9199 69.8145 29.3633C69.5977 28.8008 69.4893 28.2031 69.4893 27.5703V27.2188C69.4893 26.498 69.5918 25.8389 69.7969 25.2412C70.002 24.6436 70.2949 24.125 70.6758 23.6855C71.0625 23.2461 71.5312 22.9092 72.082 22.6748C72.6328 22.4346 73.2539 22.3145 73.9453 22.3145C74.6191 22.3145 75.2168 22.4258 75.7383 22.6484C76.2598 22.8711 76.6963 23.1875 77.0479 23.5977C77.4053 24.0078 77.6748 24.5 77.8564 25.0742C78.0381 25.6426 78.1289 26.2754 78.1289 26.9727V28.0273H70.5703V26.3398H75.6416V26.1465C75.6416 25.7949 75.5771 25.4814 75.4482 25.2061C75.3252 24.9248 75.1377 24.7021 74.8857 24.5381C74.6338 24.374 74.3115 24.292 73.9189 24.292C73.585 24.292 73.2979 24.3652 73.0576 24.5117C72.8174 24.6582 72.6211 24.8633 72.4688 25.127C72.3223 25.3906 72.2109 25.7012 72.1348 26.0586C72.0645 26.4102 72.0293 26.7969 72.0293 27.2188V27.5703C72.0293 27.9512 72.082 28.3027 72.1875 28.625C72.2988 28.9473 72.4541 29.2256 72.6533 29.46C72.8584 29.6943 73.1045 29.876 73.3916 30.0049C73.6846 30.1338 74.0156 30.1982 74.3848 30.1982C74.8418 30.1982 75.2666 30.1104 75.6592 29.9346C76.0576 29.7529 76.4004 29.4805 76.6875 29.1172L77.918 30.4531C77.7188 30.7402 77.4463 31.0156 77.1006 31.2793C76.7607 31.543 76.3506 31.7598 75.8701 31.9297C75.3896 32.0938 74.8418 32.1758 74.2266 32.1758ZM81.6094 22.4902L83.1826 25.3818L84.7998 22.4902H87.498L84.8086 27.1396L87.6211 32H84.9141L83.2002 28.9414L81.4863 32H78.7793L81.5918 27.1396L78.9023 22.4902H81.6094ZM93.3867 22.4902V24.2832H87.8496V22.4902H93.3867ZM89.2207 20.1436H91.752V29.1348C91.752 29.4102 91.7871 29.6211 91.8574 29.7676C91.9336 29.9141 92.0449 30.0166 92.1914 30.0752C92.3379 30.1279 92.5225 30.1543 92.7451 30.1543C92.9033 30.1543 93.0439 30.1484 93.167 30.1367C93.2959 30.1191 93.4043 30.1016 93.4922 30.084L93.501 31.9473C93.2842 32.0176 93.0498 32.0732 92.7979 32.1143C92.5459 32.1553 92.2676 32.1758 91.9629 32.1758C91.4062 32.1758 90.9199 32.085 90.5039 31.9033C90.0938 31.7158 89.7773 31.417 89.5547 31.0068C89.332 30.5967 89.2207 30.0576 89.2207 29.3896V20.1436Z" fill="white"/>
</svg>
