<svg width="150" height="52" viewBox="0 0 150 52" fill="none" xmlns="http://www.w3.org/2000/svg">
<rect opacity="0.4" x="1" y="1" width="148" height="50" rx="9" fill="#F6F6F6" stroke="#A4A1A1" stroke-width="2"/>
<path d="M65.2705 28.6777C65.2705 28.4316 65.2324 28.2119 65.1562 28.0186C65.0859 27.8193 64.9541 27.6406 64.7607 27.4824C64.5732 27.3184 64.3066 27.1602 63.9609 27.0078C63.6211 26.8496 63.1816 26.6855 62.6426 26.5156C62.0449 26.3281 61.4883 26.1172 60.9727 25.8828C60.457 25.6484 60.0029 25.376 59.6104 25.0654C59.2236 24.7549 58.9219 24.3975 58.7051 23.9932C58.4883 23.583 58.3799 23.1084 58.3799 22.5693C58.3799 22.042 58.4912 21.5615 58.7139 21.1279C58.9424 20.6943 59.2646 20.3223 59.6807 20.0117C60.0967 19.6953 60.5859 19.4521 61.1484 19.2822C61.7168 19.1123 62.3438 19.0273 63.0293 19.0273C63.9785 19.0273 64.7988 19.2002 65.4902 19.5459C66.1875 19.8916 66.7266 20.3604 67.1074 20.9521C67.4883 21.5439 67.6787 22.209 67.6787 22.9473H65.2705C65.2705 22.5488 65.1855 22.1973 65.0156 21.8926C64.8516 21.5879 64.5996 21.3477 64.2598 21.1719C63.9258 20.9961 63.5039 20.9082 62.9941 20.9082C62.502 20.9082 62.0918 20.9814 61.7637 21.1279C61.4414 21.2744 61.1982 21.4736 61.0342 21.7256C60.876 21.9775 60.7969 22.2588 60.7969 22.5693C60.7969 22.8037 60.8525 23.0146 60.9639 23.2021C61.0752 23.3838 61.2422 23.5566 61.4648 23.7207C61.6875 23.8789 61.9629 24.0283 62.291 24.1689C62.625 24.3037 63.0117 24.4385 63.4512 24.5732C64.1543 24.7842 64.7695 25.0186 65.2969 25.2764C65.8301 25.5342 66.2725 25.8271 66.624 26.1553C66.9814 26.4834 67.248 26.8525 67.4238 27.2627C67.6055 27.6729 67.6963 28.1387 67.6963 28.6602C67.6963 29.2109 67.5879 29.7031 67.3711 30.1367C67.1543 30.5703 66.8438 30.9395 66.4395 31.2441C66.0352 31.5488 65.5488 31.7803 64.9805 31.9385C64.418 32.0967 63.7881 32.1758 63.0908 32.1758C62.4697 32.1758 61.8545 32.0938 61.2451 31.9297C60.6416 31.7598 60.0938 31.5078 59.6016 31.1738C59.1094 30.834 58.7168 30.4062 58.4238 29.8906C58.1309 29.3691 57.9844 28.7598 57.9844 28.0625H60.4102C60.4102 28.4668 60.4746 28.8125 60.6035 29.0996C60.7383 29.3809 60.9258 29.6123 61.166 29.7939C61.4121 29.9697 61.6992 30.0986 62.0273 30.1807C62.3555 30.2627 62.71 30.3037 63.0908 30.3037C63.583 30.3037 63.9873 30.2363 64.3037 30.1016C64.626 29.9609 64.8662 29.7676 65.0244 29.5215C65.1885 29.2754 65.2705 28.9941 65.2705 28.6777ZM71.7041 18.4912V32H69.3838V18.4912H71.7041ZM77.6631 22.4902L73.5234 27.1396L71.2822 29.416L70.5439 27.6143L72.2754 25.4346L74.8594 22.4902H77.6631ZM75.29 32L72.3457 27.5703L73.8926 26.0674L77.9795 32H75.29ZM81.3545 22.4902V32H79.0254V22.4902H81.3545ZM78.8672 20.0029C78.8672 19.6572 78.9844 19.3701 79.2188 19.1416C79.459 18.9131 79.7812 18.7988 80.1855 18.7988C80.5898 18.7988 80.9092 18.9131 81.1436 19.1416C81.3838 19.3701 81.5039 19.6572 81.5039 20.0029C81.5039 20.3428 81.3838 20.627 81.1436 20.8555C80.9092 21.084 80.5898 21.1982 80.1855 21.1982C79.7812 21.1982 79.459 21.084 79.2188 20.8555C78.9844 20.627 78.8672 20.3428 78.8672 20.0029ZM85.8896 24.3184V35.6562H83.5605V22.4902H85.7139L85.8896 24.3184ZM91.998 27.1484V27.333C91.998 28.0244 91.916 28.666 91.752 29.2578C91.5938 29.8438 91.3594 30.3564 91.0488 30.7959C90.7383 31.2295 90.3516 31.5693 89.8887 31.8154C89.4316 32.0557 88.9043 32.1758 88.3066 32.1758C87.7207 32.1758 87.2109 32.0645 86.7773 31.8418C86.3438 31.6133 85.9775 31.291 85.6787 30.875C85.3799 30.459 85.1396 29.9756 84.958 29.4248C84.7822 28.8682 84.6504 28.2617 84.5625 27.6055V27.0166C84.6504 26.3193 84.7822 25.6865 84.958 25.1182C85.1396 24.5439 85.3799 24.0488 85.6787 23.6328C85.9775 23.2109 86.3408 22.8857 86.7686 22.6572C87.2021 22.4287 87.709 22.3145 88.2891 22.3145C88.8926 22.3145 89.4229 22.4287 89.8799 22.6572C90.3428 22.8857 90.7324 23.2139 91.0488 23.6416C91.3652 24.0693 91.6025 24.5791 91.7607 25.1709C91.9189 25.7627 91.998 26.4219 91.998 27.1484ZM89.6689 27.333V27.1484C89.6689 26.7266 89.6309 26.3369 89.5547 25.9795C89.4785 25.6162 89.3613 25.2998 89.2031 25.0303C89.0449 24.7549 88.8398 24.541 88.5879 24.3887C88.3359 24.2363 88.0312 24.1602 87.6738 24.1602C87.3164 24.1602 87.0088 24.2188 86.751 24.3359C86.4932 24.4531 86.2822 24.6201 86.1182 24.8369C85.9541 25.0537 85.8252 25.3115 85.7314 25.6104C85.6436 25.9033 85.585 26.2285 85.5557 26.5859V28.0449C85.6084 28.4785 85.7109 28.8682 85.8633 29.2139C86.0156 29.5596 86.2383 29.835 86.5312 30.04C86.8301 30.2451 87.2168 30.3477 87.6914 30.3477C88.0488 30.3477 88.3535 30.2686 88.6055 30.1104C88.8574 29.9521 89.0625 29.7354 89.2207 29.46C89.3789 29.1787 89.4932 28.8564 89.5635 28.4932C89.6338 28.1299 89.6689 27.7432 89.6689 27.333Z" fill="#535050" fill-opacity="0.8"/>
</svg>
